<svg xmlns="http://www.w3.org/2000/svg" width="45.905" height="46.882" viewBox="0 0 45.905 46.882">
  <defs>
    <style>
      .cls-1 {
        fill: #ec5569;
      }

      .cls-2 {
        fill: #e63950;
      }

      .cls-3 {
        fill: #fff5f5;
      }

      .cls-4 {
        fill: #dce6eb;
      }
    </style>
  </defs>
  <g id="love" transform="translate(0)">
    <path id="Path_148" data-name="Path 148" class="cls-1" d="M42.607,0H13.963A8.631,8.631,0,0,0,5.332,8.631V27.418a8.631,8.631,0,0,0,8.631,8.631h4.111a.354.354,0,0,1,.354.354V45.67a1.21,1.21,0,0,0,2.091.829L30.242,36.16a.354.354,0,0,1,.258-.112H42.607a8.631,8.631,0,0,0,8.631-8.631V8.631A8.631,8.631,0,0,0,42.607,0Z" transform="translate(-5.332)"/>
    <path id="Path_149" data-name="Path 149" class="cls-2" d="M22.059,44.049a.359.359,0,0,0-.343-.373h-3.98c-4.615,0-8.355-4.069-8.355-9.089V14.8a9.849,9.849,0,0,1,.308-2.451,8.628,8.628,0,0,0-4.357,7.5V38.64a8.631,8.631,0,0,0,8.631,8.631h4.111a.354.354,0,0,1,.354.354v9.267a1.21,1.21,0,0,0,2.091.829l1.54-1.638V44.049Z" transform="translate(-5.332 -11.222)"/>
    <path id="Path_150" data-name="Path 150" class="cls-1" d="M153.18,106.02h0a5.611,5.611,0,0,0-7.935,0l-1.238,1.238a.756.756,0,0,1-1.069,0l-1.218-1.218a5.611,5.611,0,0,0-7.935,0h0a5.611,5.611,0,0,0,0,7.935l9.154,9.154a.756.756,0,0,0,1.069,0l9.172-9.174A5.611,5.611,0,0,0,153.18,106.02Z" transform="translate(-120.529 -94.819)"/>
    <path id="Path_151" data-name="Path 151" class="cls-3" d="M153.18,106.02h0a5.611,5.611,0,0,0-7.935,0l-1.238,1.238a.756.756,0,0,1-1.069,0l-1.218-1.218a5.611,5.611,0,0,0-7.935,0h0a5.611,5.611,0,0,0,0,7.935l9.154,9.154a.756.756,0,0,0,1.069,0l9.172-9.174A5.611,5.611,0,0,0,153.18,106.02Z" transform="translate(-120.529 -94.819)"/>
    <path id="Path_152" data-name="Path 152" class="cls-4" d="M136.72,114.185a5.611,5.611,0,0,1,0-7.935h0a5.583,5.583,0,0,1,2.5-1.447,5.607,5.607,0,0,0-5.435,1.447h0a5.611,5.611,0,0,0,0,7.935l9.154,9.154a.756.756,0,0,0,1.069,0l.933-.933Z" transform="translate(-120.53 -95.029)"/>
  </g>
</svg>
