<svg xmlns="http://www.w3.org/2000/svg" width="45" height="45" viewBox="0 0 45 45">
  <defs>
    <style>
      .cls-1 {
        fill: #e04f5f;
      }

      .cls-2 {
        fill: #fff;
      }
    </style>
  </defs>
  <g id="heart" transform="translate(0 -0.003)">
    <path id="Path_153" data-name="Path 153" class="cls-1" d="M0,22.5A22.5,22.5,0,1,1,22.5,45,22.5,22.5,0,0,1,0,22.5Z" transform="translate(0 0)"/>
    <path id="Path_154" data-name="Path 154" class="cls-2" d="M122.918,131.4a8.145,8.145,0,0,0-11.461,0h0a8.145,8.145,0,0,0-11.461,0c-3.165,3.143-2.709,7.843,0,11.381,2.869,3.747,8.106,9.929,11.461,9.929h0c3.355,0,8.593-6.182,11.461-9.929C125.627,139.245,126.083,134.545,122.918,131.4Z" transform="translate(-88.955 -117.283)"/>
  </g>
</svg>
